# xmcd
#
# Track frame offsets: 
#        150
#        22577
#        39009
#        58267
#        73887
#        89547
#        106938
#        121565
#        139528
#        158364
#        179552
#        199085
#        220038
#        235478
#        253575
#        269883
#        285688
#        304452
#        324276
#        339694
#
# Disc length: 4772 seconds
#
# Revision: 1
# Processed by: cddbd v1.5.2PL0 Copyright (c) Steve Scherf et al.
# Submitted via: ExactAudioCopy v1.0b3
#
DISCID=2112a214
DTITLE=Various Artist - Viva Only Hits Vol.9
DYEAR=2001
DGENRE=Dance, Pop
TTITLE0=Robbie Williams - Let Love Be Your Energy
TTITLE1=Modern Talking - Win The Race
TTITLE2=Dido - Here With Me
TTITLE3=No Angel - Daylight In Your Eyes
TTITLE4=Shaggy - It Wasn't Me
TTITLE5=Super Funk and Euric - Last Dance
TTITLE6=A-Teens - Upside Down
TTITLE7=ATC - Why Oh Why
TTITLE8=Benjamin Diamond - Little Scare
TTITLE9=Whitney Houston - Heartbreak Hotel
TTITLE10=Daft Punk - One More Time
TTITLE11=Kylie Minogue - Your Disco Needs You
TTITLE12=Planet Funk - Chase The Sun
TTITLE13=Gigi D'agostino - Super
TTITLE14=Leann Rimes - Can't Fight The Moonlight
TTITLE15=DJ Bobo - What A Feeling
TTITLE16=R. Martin and C. Aquilera - Nobody Wants To Be Lonely
TTITLE17=X-Zibit - X
TTITLE18=Madasun - Country Grammar
TTITLE19=Wheatus - Teenage Dirtbag
EXTD=
EXTT0=
EXTT1=
EXTT2=
EXTT3=
EXTT4=
EXTT5=
EXTT6=
EXTT7=
EXTT8=
EXTT9=
EXTT10=
EXTT11=
EXTT12=
EXTT13=
EXTT14=
EXTT15=
EXTT16=
EXTT17=
EXTT18=
EXTT19=
PLAYORDER=
